HIERARCHY
ROOT RootJoint
{
    OFFSET   0.000000   0.000000   0.000000
    CHANNELS 6 Xposition Yposition Zposition Xrotation Yrotation Zrotation
    JOINT pelvis_lowerback
    {
        OFFSET   0.000000   0.093605   0.000000
        CHANNELS 3 Xrotation Yrotation Zrotation
        JOINT lowerback_torso
        {
            OFFSET   0.000000   0.100000   0.000000
            CHANNELS 3 Xrotation Yrotation Zrotation
            JOINT torso_head
            {
                OFFSET   0.000000   0.282350   0.000000
                CHANNELS 3 Xrotation Yrotation Zrotation
                End Site
                {
                    OFFSET   0.000000   0.192650   0.000000
                }
            }
            JOINT rTorso_Clavicle
            {
                OFFSET  -0.001000   0.157500   0.000000
                CHANNELS 3 Xrotation Yrotation Zrotation
                JOINT rShoulder
                {
                    OFFSET  -0.117647   0.000000   0.000000
                    CHANNELS 3 Xrotation Yrotation Zrotation
                    JOINT rElbow
                    {
                        OFFSET  -0.245000   0.000000   0.000000
                        CHANNELS 3 Xrotation Yrotation Zrotation
                        JOINT rWrist
                        {
                            OFFSET  -0.240000   0.000000   0.000000
                            CHANNELS 3 Xrotation Yrotation Zrotation
                            End Site
                            {
                                OFFSET  -0.116353  -0.002500   0.000000
                            }
                        }
                    }
                }
            }
            JOINT lTorso_Clavicle
            {
                OFFSET   0.001000   0.157500   0.000000
                CHANNELS 3 Xrotation Yrotation Zrotation
                JOINT lShoulder
                {
                    OFFSET   0.117647   0.000000   0.000000
                    CHANNELS 3 Xrotation Yrotation Zrotation
                    JOINT lElbow
                    {
                        OFFSET   0.245000   0.000000   0.000000
                        CHANNELS 3 Xrotation Yrotation Zrotation
                        JOINT lWrist
                        {
                            OFFSET   0.240000   0.000000   0.000000
                            CHANNELS 3 Xrotation Yrotation Zrotation
                            End Site
                            {
                                OFFSET   0.116353  -0.002500   0.000000
                            }
                        }
                    }
                }
            }
        }
    }
    JOINT rHip
    {
        OFFSET  -0.100000  -0.051395   0.000000
        CHANNELS 3 Xrotation Yrotation Zrotation
        JOINT rKnee
        {
            OFFSET   0.000000  -0.410000   0.000000
            CHANNELS 3 Xrotation Yrotation Zrotation
            JOINT rAnkle
            {
                OFFSET   0.000000  -0.390000   0.000000
                CHANNELS 3 Xrotation Yrotation Zrotation
                JOINT rToeJoint
                {
                    OFFSET   0.000000  -0.050000   0.130000
                    CHANNELS 3 Xrotation Yrotation Zrotation
                    End Site
                    {
                        OFFSET  -0.010000   0.002000   0.060000
                    }
                }
            }
        }
    }
    JOINT lHip
    {
        OFFSET   0.100000  -0.051395   0.000000
        CHANNELS 3 Xrotation Yrotation Zrotation
        JOINT lKnee
        {
            OFFSET   0.000000  -0.410000   0.000000
            CHANNELS 3 Xrotation Yrotation Zrotation
            JOINT lAnkle
            {
                OFFSET   0.000000  -0.390000   0.000000
                CHANNELS 3 Xrotation Yrotation Zrotation
                JOINT lToeJoint
                {
                    OFFSET   0.000000  -0.050000   0.130000
                    CHANNELS 3 Xrotation Yrotation Zrotation
                    End Site
                    {
                        OFFSET   0.010000   0.002000   0.060000
                    }
                }
            }
        }
    }
}
MOTION
Frames: 17
Frame Time:   0.008333
 -2.376719   0.925631   3.975860   0.000000   0.000000   0.000000   0.000000   0.000000   0.000000   0.000000   0.000000   0.000000   0.000000   0.000000   0.000000   0.000000   0.000000   0.000000   0.000000   0.000000   0.000000   0.000000   0.000000   0.000000   0.000000   0.000000   0.000000   0.000000   0.000000   0.000000   0.000000   0.000000   0.000000   0.000000   0.000000   0.000000   0.000000   0.000000   0.000000   0.000000   0.000000   0.000000   0.000000   0.000000   0.000000   0.000000   0.000000   0.000000   0.000000   0.000000   0.000000   0.000000   0.000000   0.000000   0.000000   0.000000   0.000000   0.000000   0.000000   0.000000   0.000000   0.000000   0.000000
 -2.376725   0.926217   3.975641  -0.357832   0.174340  -0.234087   0.418695  -0.037148   0.251231   0.174007  -0.105882   0.102443  -0.231200   0.319125   0.029718   0.151479  -0.344702   0.132122   0.717735   0.182142   2.144368   0.016551   0.788600  -0.007692   0.355676  -0.321982  -2.656303   0.052631  -0.002651  -0.617908   0.855515  -0.137963  -1.988633   0.010992  -0.504706   0.005088   0.389717   0.362371   2.835635   0.081760   0.302485   0.181108   0.712775   0.000357   0.002961  -0.579614  -0.196457  -0.099182  -0.431040  -0.000564  -0.001056   0.070539  -0.009878   0.367926   1.134456  -0.001303   0.001642  -1.188880  -0.032284  -0.082372   0.455937  -0.000207   0.000520
 -2.376744   0.927218   3.975396  -0.766556   0.420931  -0.485419   0.847963  -0.112544   0.517816   0.414443  -0.257963   0.223787  -0.433766   0.631195   0.084491   0.304062  -0.648522   0.966975   1.414910   0.419597   4.846192   0.038062   1.554708  -0.013648   0.743089  -0.419186  -4.593057   0.109377  -0.096454  -1.986056   1.685745  -0.382666  -4.589326   0.025855  -1.010162   0.009269   0.804722   0.556512   4.902355   0.136383   0.604869   0.314097   1.463020   0.001200   0.005932  -1.121837  -0.376993  -0.193267  -0.868171  -0.001253  -0.002257   0.232446  -0.011350   0.842752   2.353266  -0.003278   0.004009  -2.297465  -0.058161  -0.159030   0.840062  -0.000645   0.001148
 -2.376770   0.928216   3.975163  -1.160437   0.700263  -0.719393   1.256453  -0.215267   0.767778   0.654395  -0.436949   0.336586  -0.619729   0.923079   0.145383   0.450655  -0.901614   2.244781   2.085662   0.710423   7.916145   0.059118   2.278233  -0.017693   1.122169  -0.427973  -5.718934   0.155921  -0.252297  -3.791046   2.482477  -0.720038  -7.581003   0.040913  -1.500482   0.012386   1.209977   0.623251   6.103368   0.130854   0.889004   0.373301   2.160697   0.002260   0.008111  -1.628723  -0.544727  -0.282998  -1.277352  -0.001943  -0.003231   0.451260  -0.006231   1.370913   3.529117  -0.005356   0.006313  -3.330718  -0.079125  -0.230279   1.190797  -0.001166   0.001728
 -2.376809   0.928908   3.974968  -1.526447   0.991207  -0.931635   1.641141  -0.336994   0.994249   0.879333  -0.632442   0.431544  -0.794457   1.195297   0.207095   0.590993  -1.113859   3.780209   2.729580   1.052505  11.234783   0.077281   2.959096  -0.020206   1.489708  -0.386664  -6.241111   0.188496  -0.447463  -5.845164   3.232538  -1.134112 -10.787282   0.054267  -1.972297   0.014596   1.606893   0.590953   6.649236   0.066919   1.154291   0.366051   2.794706   0.003315   0.009467  -2.103449  -0.701035  -0.368549  -1.660609  -0.002574  -0.003940   0.712359   0.004059   1.935224   4.645421  -0.007307   0.008266  -4.295261  -0.096298  -0.296432   1.506829  -0.001672   0.002176
 -2.376900   0.929056   3.974835  -1.863168   1.281183  -1.121545   2.002091  -0.472173   1.190437   1.086995  -0.838482   0.496240  -0.958868   1.449068   0.270188   0.724640  -1.296064   5.452147   3.345491   1.441033  14.722595   0.091550   3.598124  -0.021521   1.844445  -0.313834  -6.349078   0.205743  -0.665234  -8.054423   3.903795  -1.593050 -13.989485   0.064848  -2.424367   0.015964   1.995787   0.477829   6.692550  -0.046480   1.401889   0.305014   3.368551   0.004228   0.010140  -2.548139  -0.846800  -0.449986  -2.018937  -0.003098  -0.004398   1.007515   0.018851   2.526480   5.702895  -0.009047   0.009791  -5.195804  -0.110441  -0.357791   1.791452  -0.002122   0.002478
 -2.377060   0.928488   3.974778  -2.171958   1.563036  -1.291834   2.339532  -0.616533   1.354903   1.277498  -1.050523   0.532166  -1.112855   1.685548   0.330516   0.851751  -1.458782   7.174205   3.932305   1.869224  18.321843   0.101751   4.196071  -0.021906   2.184912  -0.224749  -6.189839   0.207653  -0.890466 -10.314248   4.500014  -2.079428 -17.115623   0.072366  -2.854538   0.016672   2.373256   0.308951   6.416982  -0.199834   1.633173   0.202675   3.888062   0.004940   0.010293  -2.964533  -0.982698  -0.527312  -2.352562  -0.003497  -0.004639   1.330194   0.037723   3.137710   6.704648  -0.010526   0.010895  -6.036474  -0.122074  -0.414609   2.048650  -0.002493   0.002651
 -2.377139   0.926524   3.974231  -2.267926   1.749270  -1.426091   2.624382  -0.724639   1.533918   1.332994  -1.302173   0.492558  -1.407216   1.701176   0.349727   0.962974  -1.368234   8.403568   4.507122   2.299191  21.711455   0.107068   4.814595  -0.022672   2.459631  -0.226588  -5.002469   0.264110  -1.057856 -11.796547   4.873655  -2.464612 -20.260833   0.075299  -3.276981   0.016723   2.712497  -0.081759   5.235029  -0.699726   1.518767   0.018687   4.833407   0.006925   0.008535  -3.315619  -1.098441  -0.428670  -2.355392  -0.002803  -0.003711   1.442050   0.111643   3.696418   7.122460  -0.009749   0.009884  -6.583090   0.012614  -0.418765   2.307029  -0.002873   0.003050
 -2.377180   0.923369   3.973542  -2.334547   1.936285  -1.549470   2.925843  -0.820749   1.710338   1.377348  -1.525116   0.456839  -1.695408   1.702245   0.357693   1.047676  -1.230471   9.386591   5.007726   2.759994  24.763022   0.107202   5.404192  -0.022996   2.728162  -0.184846  -3.880537   0.302293  -1.222809 -12.985640   5.202474  -2.839136 -23.071511   0.074348  -3.671577   0.016424   3.029734  -0.487673   4.142492  -1.153174   1.391730  -0.198592   5.762119   0.008565   0.006935  -3.636501  -1.211357  -0.338052  -2.327452  -0.002178  -0.002980   1.443667   0.177091   4.237971   7.399875  -0.008666   0.008681  -7.097724   0.139777  -0.420636   2.543194  -0.003088   0.003272
 -2.377190   0.919141   3.972816  -2.390729   2.122875  -1.667579   3.229838  -0.890872   1.885366   1.427056  -1.713421   0.433137  -1.961545   1.702004   0.362977   1.112639  -1.076014  10.189295   5.444004   3.227453  27.526990   0.103954   5.961838  -0.022932   2.989588  -0.108185  -2.961850   0.325120  -1.380383 -13.965184   5.492063  -3.200514 -25.600613   0.071075  -4.040274   0.015772   3.328265  -0.877178   3.274484  -1.528565   1.274895  -0.434172   6.644439   0.009777   0.005646  -3.934729  -1.317757  -0.254354  -2.296718  -0.001666  -0.002394   1.359499   0.233443   4.764808   7.613627  -0.007584   0.007534  -7.579999   0.258554  -0.420947   2.756614  -0.003167   0.003348
 -2.376992   0.918472   3.972568  -2.584182   2.009920  -1.161814   3.582158  -0.835358   1.562859   1.531851  -1.795770   0.206434  -2.204526   1.704750   0.349855   1.150525  -0.882295  11.181956   5.811435   3.719535  30.178949   0.100454   6.489583  -0.022303   3.244473  -0.017885  -2.240717   0.357634  -1.495238 -14.998942   5.757876  -3.520290 -27.937868   0.066946  -4.367658   0.014814   3.604082  -1.161400   2.670030  -1.683396   1.199867  -1.239802   7.486715   0.010027   0.002548  -4.200368  -1.419173  -0.179120  -2.178401  -0.001076  -0.002242   1.154331   0.278714   4.244672   8.405787  -0.005855   0.005901  -7.696801   0.277331  -0.722109   2.079524  -0.004468   0.002763
 -2.377304   0.918300   3.972635  -2.728269   1.835042  -0.988451   3.859424  -0.758492   1.563620   1.614531  -1.834847   0.075219  -2.424981   1.707264   0.329252   1.180991  -0.698354  11.968391   6.132770   4.197699  32.617116   0.095333   6.990091  -0.021152   3.490277   0.125420  -1.474372   0.407139  -1.568151 -15.905935   6.005240  -3.809768 -30.150628   0.061950  -4.669977   0.013686   3.862817  -1.422220   1.991136  -1.863476   1.092698  -1.545600   8.227254   0.008745  -0.000121  -4.468972  -1.528141  -0.087622  -2.096668  -0.000820  -0.002088   1.028961   0.361488   4.089594   9.016154  -0.004763   0.004414  -7.914015   0.369838  -0.800902   1.942056  -0.003658   0.002174
 -2.377901   0.918253   3.972888  -2.824022   1.727470  -0.920159   4.088999  -0.706281   1.642954   1.670481  -1.877312   0.012255  -2.635242   1.707923   0.322270   1.211913  -0.537738  12.621655   6.418957   4.645434  34.844788   0.088943   7.455756  -0.019775   3.723448   0.269098  -0.790000   0.457435  -1.625029 -16.684286   6.231669  -4.077178 -32.181103   0.056445  -4.948894   0.012438   4.106906  -1.658073   1.363162  -2.017785   0.998209  -1.705574   8.967528   0.007446  -0.001661  -4.706946  -1.615756  -0.022304  -2.052991  -0.000640  -0.001787   0.915145   0.442331   4.068111   9.511458  -0.003972   0.003548  -8.143309   0.476946  -0.840160   2.034324  -0.002924   0.001823
 -2.378964   0.918112   3.973190  -2.858494   1.635364  -0.850407   4.278894  -0.635217   1.576953   1.701218  -1.871065   0.041448  -2.821997   1.600387   0.357366   1.243763  -0.434534  12.930495   6.740225   5.093013  36.546147   0.080026   7.915265  -0.018788   3.925495   0.562717   0.580528   0.566142  -1.669971 -16.945932   6.306527  -4.365305 -33.848216   0.051683  -5.323293   0.011440   4.326671  -1.921468   0.145373  -2.039583   0.928660  -1.792730   9.129961   0.005947  -0.001586  -4.784058  -1.600768   0.036801  -1.842844  -0.000596  -0.001713   0.752798   0.452793   4.064339   9.988862  -0.003463   0.002640  -8.404146   0.603651  -0.822492   2.103107  -0.002386   0.001500
 -2.380342   0.917940   3.973482  -2.849784   1.532669  -0.791436   4.453229  -0.549118   1.486491   1.709650  -1.849248   0.064120  -2.995617   1.497834   0.390454   1.258132  -0.330158  12.956777   7.029440   5.507045  37.941872   0.069945   8.343825  -0.017644   4.117531   0.856580   1.688451   0.653102  -1.715031 -16.907885   6.370646  -4.623804 -35.202495   0.045714  -5.674745   0.010383   4.532129  -2.198647  -0.795554  -2.074017   0.865354  -1.816471   9.204450   0.004718  -0.001381  -4.860035  -1.584277   0.093036  -1.650351  -0.000644  -0.001626   0.576259   0.461242   4.088591  10.408208  -0.003105   0.001897  -8.666445   0.727043  -0.797756   2.215794  -0.002012   0.001253
 -2.381968   0.917922   3.973773  -2.818963   1.448603  -0.817619   4.625744  -0.464329   1.451771   1.710255  -1.823288   0.100745  -3.157399   1.402162   0.421462   1.257369  -0.225302  12.787382   7.290567   5.889033  39.094912   0.059875   8.741628  -0.016424   4.299768   1.115567   2.475062   0.722804  -1.762374 -16.693447   6.426412  -4.856929 -36.329733   0.039516  -6.000326   0.009344   4.727030  -2.441934  -1.425485  -2.155056   0.791417  -1.701464   9.297967   0.003682  -0.001228  -4.881010  -1.574299   0.161530  -1.472218  -0.000771  -0.001527   0.422038   0.461201   4.218024  10.738632  -0.002807   0.001377  -8.952769   0.842396  -0.761014   2.353970  -0.001775   0.001065
 -2.383743   0.917917   3.974092  -2.765699   1.406854  -0.848318   4.786023  -0.391638   1.405108   1.704214  -1.802908   0.130355  -3.306734   1.312401   0.451162   1.251186  -0.128527  12.483813   7.530862   6.238234  40.065707   0.050425   9.110258  -0.015195   4.473956   1.337859   3.018530   0.780360  -1.808848 -16.348365   6.476504  -5.066803 -37.277146   0.033591  -6.301962   0.008319   4.913630  -2.650475  -1.822703  -2.239769   0.724047  -1.567229   9.372576   0.002867  -0.001045  -4.916771  -1.561105   0.218642  -1.311100  -0.000853  -0.001348   0.272818   0.452394   4.364519  11.005664  -0.002525   0.001067  -9.240739   0.946787  -0.719172   2.478758  -0.001586   0.000933
